<svg width="765" height="686" viewBox="0 0 765 686" fill="none" xmlns="http://www.w3.org/2000/svg">
<path d="M474.983 236.914C469.415 242.556 450.245 261.487 444.25 268.688C405.686 218.396 398.093 213.059 367.6 213.059C313.994 213.311 258.204 230.741 213.074 255.914C183.137 272.637 180.678 281.008 177.207 306.946C174.623 324.992 173.225 343.158 173.021 361.35C174.361 352.709 234.847 354.501 234.847 364.463C234.992 348.057 236.655 309.799 237.668 301.11C241.645 299.813 246.996 298.062 252.853 296.247C263.575 287.767 273.695 278.692 283.152 269.077C286.808 284.907 289.033 300.976 289.804 317.127C314.615 306.455 345.461 305.13 372.746 310.123C373.107 309.216 373.541 308.243 373.887 307.335C374.047 294.806 373.225 282.282 371.429 269.855C379.459 281.281 409.446 318.389 420.905 328.474C439.554 344.945 455.539 343.453 473.548 324.584C489.103 308.441 503.611 291.511 517 273.876C519.466 249.539 492.262 232.867 474.983 236.914Z" fill="#FFF1F4"/>
<path d="M469.057 568.464C465.89 564.688 464.35 560.014 464.718 555.301C451.176 552.738 437.328 551.714 423.5 552.253C420.958 566.587 419.421 580.139 418.222 587.405C421.548 577.808 521.627 604.394 523.797 616.196C524.337 599.173 483.523 585.504 469.057 568.464Z" fill="#FFF1F4"/>
<path d="M648.606 85.6983C631.613 71.1732 647.883 56.6481 641.303 41.4746C660.755 48.4129 673.915 66.2451 665.166 83.0397L648.606 85.6983Z" fill="#FFF1F4"/>
<path d="M144.595 535.068C126.277 538.512 115.29 541.467 107.427 543.044C120.081 543.044 126.734 635.771 114.152 643.942C132.751 636.925 131.415 599.394 138.89 583.766C139.983 580.996 141.855 578.525 144.325 576.594C146.796 574.662 149.781 573.336 152.991 572.743C152.504 559.858 149.668 547.131 144.595 535.068Z" fill="#FFF1F4"/>
<path d="M560.458 170.451C542.308 157.288 516.709 171.618 517.939 189.191C521.866 189.269 525.741 190.017 529.356 191.396C531.499 194.553 532.717 198.143 532.9 201.836C534.971 205.195 536.972 208.59 538.901 212.016C562.989 218.566 584.321 187.717 560.458 170.451Z" fill="#FFF1F4"/>
<path d="M485.905 196.842L480.196 191.265L475.279 177.648C456.55 170.45 425.042 184.781 426.324 213.183C427.466 237.888 454.309 247.939 468.189 243.919C471.154 240.936 473.612 238.458 475.131 236.915C476.755 236.516 478.437 236.341 480.12 236.397C480.843 224.271 478.819 217.722 478.819 211.561C478.819 209.097 482.073 204.558 485.905 196.842Z" fill="#FFF1F4"/>
<path d="M620.26 148.08L428.345 107.173C415.763 105.098 408.459 109.832 404.844 118.262L390.739 150.831C394.808 180.01 394.42 193.406 391.394 196.723C388.791 199.576 382.789 200.938 375.558 199.965C376.296 204.481 377.285 208.962 378.522 213.388C381.198 213.593 383.858 213.962 386.477 214.49L425.887 122.402L610.353 162.54L552.215 311.552L498.487 297.027C494.066 302.189 489.558 307.29 484.965 312.33L552.576 330.551C562.917 333.34 572.896 330.357 577.452 319.139L634.65 171.618C638.555 161.503 637.398 151.841 620.26 148.08ZM599.145 243.919C598.791 245.074 598.049 246.103 597.019 246.865C595.989 247.627 594.722 248.086 593.391 248.179C592.284 248.258 591.173 248.083 590.164 247.668C589.154 247.253 588.28 246.614 587.624 245.81C586.969 245.007 586.554 244.066 586.419 243.078C586.283 242.09 586.433 241.087 586.852 240.165C587.206 239.011 587.949 237.982 588.978 237.22C590.008 236.458 591.275 235.999 592.607 235.906C593.713 235.826 594.824 236 595.834 236.417C596.843 236.831 597.717 237.471 598.373 238.274C599.029 239.078 599.444 240.019 599.579 241.007C599.714 241.995 599.565 242.998 599.145 243.919Z" fill="#FF4D6D"/>
<path d="M494.293 205.012L510.346 220.769C502.03 224.011 492.919 217.407 494.293 205.012Z" fill="#FF4D6D"/>
<path d="M517.143 200.086C515.119 199.632 510.635 198.918 505.345 198.205L517.143 209.747C517.433 206.532 517.433 203.3 517.143 200.086Z" fill="#FF4D6D"/>
<path d="M464.79 555.236C477.228 557.83 480.554 561.332 480.554 563.925C480.554 567.232 474.465 568.4 469.136 568.4C465.988 564.615 464.447 559.948 464.79 555.236Z" fill="#FF4D6D"/>
<path d="M423.5 552.252C422.56 557.958 421.764 562.692 421.186 566.777C412.653 565.286 407.203 562.04 407.519 558.477C407.785 555.491 412.291 552.965 423.5 552.252Z" fill="#FF4D6D"/>
<path d="M132.373 524.111C135.707 523.353 140.327 525.992 144.594 535.135C136.982 536.626 131.216 537.865 126.516 538.889C125.359 530.92 128.548 524.978 132.373 524.111Z" fill="#FF4D6D"/>
<path d="M152.982 572.744C149.786 573.368 146.818 574.705 144.353 576.632C141.888 578.559 140.006 581.014 138.881 583.768C140.404 588.037 144.472 592.552 148.194 590.17C150.908 588.436 153.241 583.041 152.982 572.744Z" fill="#FF4D6D"/>
<path d="M354.515 361.869C353.213 378.404 354.153 417.765 354.515 431.641C347.283 429.566 340.92 427.816 336.147 426.648C343.234 400.516 348.874 379.961 354.515 361.869Z" fill="#FF4D6D"/>
<path d="M173.084 361.221C172.65 364.074 178.58 367.057 187.166 367.446C187.939 366.917 188.559 366.228 188.974 365.436C189.64 362.317 189.88 359.139 189.697 355.969C178.218 356.682 173.446 358.952 173.084 361.221Z" fill="#FF4D6D"/>
<path d="M234.831 363.737C234.195 361.577 230.397 359.256 222.203 357.785C222.42 360.638 222.565 364.788 222.782 369.389C227.569 369.256 235.973 367.621 234.831 363.737Z" fill="#FF4D6D"/>
<path d="M283.216 269.014C284.517 274.59 285.746 280.75 286.759 287.102C275.341 289.62 264.068 292.651 252.989 296.18C263.653 287.667 273.746 278.596 283.216 269.014Z" fill="#FF4D6D"/>
<path d="M383.366 285.483C380.136 292.73 377.002 300.012 373.966 307.326C374.123 294.796 373.302 282.272 371.507 269.846C373.532 272.774 377.932 278.61 383.366 285.483Z" fill="#FF4D6D"/>
<path d="M478.118 595.624C450.422 587.652 420.067 582.188 418.221 587.399C415.777 594.375 443.518 604.491 471.172 611.381C495.149 617.36 519.08 620.917 523.179 617.9C531.069 612.098 487.922 598.446 478.118 595.624Z" fill="#FF4D6D"/>
<path d="M120.205 589.068C118.432 565.396 113.633 543.117 107.353 543.117C99.7146 543.087 97.0771 565.85 97.9943 589.815C99.0181 616.435 104.43 644.533 112.27 644.533C123.319 642.325 120.959 599.108 120.205 589.068Z" fill="#FF4D6D"/>
<path d="M662.273 375.552C643.207 372.203 623.469 373.851 605.421 380.298C587.372 386.746 571.777 397.719 560.5 411.905C549.226 426.094 542.749 442.895 541.844 460.299C540.939 477.702 545.644 494.97 555.396 510.039C609.269 479.821 646.437 431.318 662.273 375.552Z" fill="#FF4D6D"/>
<path d="M374.979 191.07C382.499 195.934 389.441 199.111 391.755 196.063C389.514 200.084 384.813 201.251 375.702 199.954C375.356 197 375.115 194.038 374.979 191.07Z" fill="#FF4D6D"/>
<path d="M400.287 122.726C396.238 118.122 389.224 115.333 378.449 116.371C383.222 81.0308 327.036 75.973 324.866 105.542C296.159 85.505 250.024 116.565 282.492 137.964C264.848 138.937 258.99 159.881 277.864 159.881C234.332 186.532 268.608 245.865 362.758 189.573C367.832 185.663 372.393 181.246 376.352 176.41C368.326 166.618 377.292 160.458 380.619 167.461C382.499 171.482 384.596 165.321 384.596 160.328C387.243 160.469 389.832 161.086 392.207 162.144C403.05 156.509 410.282 134.008 400.287 122.726Z" fill="#FF4D6D"/>
<path d="M648.606 85.6983C631.613 71.1732 647.883 56.6481 641.303 41.4746C660.755 48.4129 673.915 66.2451 665.166 83.0397L648.606 85.6983Z" stroke="#FF6B88" stroke-width="0.769171" stroke-linecap="round" stroke-linejoin="round"/>
<path d="M378.522 213.386C381.198 213.591 383.854 213.96 386.477 214.489L425.887 122.4L610.354 162.538L552.215 311.55L498.487 297.025C494.066 302.187 489.558 307.288 484.965 312.328L552.576 330.549C562.917 333.338 572.896 330.355 577.452 319.137L634.65 171.616C638.555 161.501 637.398 151.839 620.26 148.078L428.345 107.171C415.763 105.096 408.459 109.83 404.844 118.26L401.921 125.004M599.145 243.918C598.791 245.072 598.049 246.101 597.019 246.863C595.989 247.625 594.722 248.084 593.391 248.177C592.284 248.256 591.173 248.081 590.164 247.666C589.154 247.251 588.28 246.612 587.624 245.808C586.969 245.005 586.554 244.064 586.419 243.076C586.283 242.088 586.433 241.085 586.852 240.163C587.206 239.009 587.949 237.98 588.978 237.218C590.008 236.456 591.275 235.997 592.607 235.904C593.713 235.825 594.824 236 595.834 236.415C596.843 236.83 597.717 237.469 598.373 238.273C599.029 239.076 599.444 240.017 599.579 241.005C599.714 241.993 599.565 242.996 599.145 243.918Z" stroke="#FF6B88" stroke-width="0.769171" stroke-linejoin="round"/>
<path d="M31.209 518.209L79.2239 456.736" stroke="#FF6B88" stroke-width="0.769171" stroke-linecap="round" stroke-linejoin="round"/>
<path d="M20.9414 465.945L89.4928 509.002" stroke="#FF6B88" stroke-width="0.769171" stroke-linecap="round" stroke-linejoin="round"/>
<path d="M488.002 377.173L534.282 369.846" stroke="#FF6B88" stroke-width="0.769171" stroke-linecap="round" stroke-linejoin="round"/>
<path d="M507.093 352.791L515.192 394.291" stroke="#FF6B88" stroke-width="0.769171" stroke-linecap="round" stroke-linejoin="round"/>
<path d="M642.893 555.299C698.764 555.299 744.057 514.683 744.057 464.582C744.057 414.482 698.764 373.865 642.893 373.865C587.023 373.865 541.729 414.482 541.729 464.582C541.729 514.683 587.023 555.299 642.893 555.299Z" stroke="#FF6B88" stroke-width="0.769171" stroke-linecap="round" stroke-linejoin="round"/>
<path d="M126.877 273.033C149.72 273.033 168.24 256.426 168.24 235.942C168.24 215.458 149.72 198.852 126.877 198.852C104.035 198.852 85.5151 215.458 85.5151 235.942C85.5151 256.426 104.035 273.033 126.877 273.033Z" stroke="#FF6B88" stroke-width="0.769171" stroke-linecap="round" stroke-linejoin="round"/>
<path d="M305.85 536.168C339.328 542.201 373.455 544.855 407.592 544.079" stroke="#FF6B88" stroke-width="0.769171" stroke-linecap="round" stroke-linejoin="round"/>
<path d="M480.554 537.468C647.723 504.209 723.243 327.632 631.251 180.545M213.073 507.957C135.054 473.5 75.1379 413.07 46.1058 339.557C-15.0699 189.118 89.2834 122.479 187.475 148.655C238.596 162.283 263.402 150.341 266.584 109.749C269.549 71.9447 299.486 43.5908 388.863 48.4711C466.312 52.7031 554.97 93.4866 603.765 144.468" stroke="#FF6B88" stroke-width="0.769171" stroke-linecap="round" stroke-linejoin="round"/>
<path d="M147.849 70.1367L52.3211 85.2454C48.6298 85.8846 45.3668 87.7997 43.2363 90.5774C41.1059 93.3552 40.2789 96.7727 40.9339 100.092C41.5889 103.412 43.6733 106.368 46.7372 108.321C49.8011 110.275 53.5988 111.07 57.3106 110.535L152.838 95.4259L180.027 78.0477L147.849 70.1367Z" stroke="#FF6B88" stroke-width="0.769171" stroke-linecap="round" stroke-linejoin="round"/>
<path d="M56.8071 84.5312L61.7966 109.82" stroke="#FF6B88" stroke-width="0.769171" stroke-linecap="round" stroke-linejoin="round"/>
<path d="M73.0054 82.002L77.9226 107.291" stroke="#FF6B88" stroke-width="0.769171" stroke-linecap="round" stroke-linejoin="round"/>
<path d="M147.848 70.1367L152.838 95.4259" stroke="#FF6B88" stroke-width="0.769171" stroke-linecap="round" stroke-linejoin="round"/>
<path d="M648.606 85.6992C648.895 97.172 650.079 108.612 652.15 119.937C658.719 153.41 670.878 188.672 677.17 187.699C683.461 186.726 681.474 149.816 674.856 116.371C672.511 105.09 669.273 93.9734 665.166 83.1055L648.606 85.6992Z" stroke="#FF6B88" stroke-width="0.769171" stroke-linecap="round" stroke-linejoin="round"/>
<path d="M651.354 115.785L674.059 112.219" stroke="#FF6B88" stroke-width="0.769171" stroke-linecap="round" stroke-linejoin="round"/>
<path d="M187.186 367.511C178.58 367.121 172.666 364.139 173.104 361.285C173.553 358.238 181.709 355.262 202.679 355.825C226.397 356.48 235.178 360.883 235.003 364.449C234.881 366.978 229.796 369.118 222.854 369.312" stroke="#FF6B88" stroke-width="0.769171" stroke-linecap="round" stroke-linejoin="round"/>
<path d="M444.326 268.625C450.327 261.427 469.49 242.557 475.058 236.851C488.58 233.544 519.385 245.994 516.999 273.877C503.586 291.494 489.076 308.419 473.539 324.571C455.488 343.404 439.637 344.987 420.897 328.462C408.828 317.821 378.016 279.317 371.508 269.843C373.304 282.269 374.126 294.793 373.966 307.323" stroke="#FF6B88" stroke-width="0.769171" stroke-linecap="round" stroke-linejoin="round"/>
<path d="M451.702 278.351C405.784 217.787 399.059 212.988 367.676 212.988C318.721 212.988 261.731 228.605 213.157 255.85C183.216 272.638 180.891 281.023 177.29 306.883C174.747 324.932 173.349 343.096 173.104 361.287" stroke="#FF6B88" stroke-width="0.769171" stroke-linecap="round" stroke-linejoin="round"/>
<path d="M383.367 285.418C355.672 347.344 348.395 381.264 311.779 518.516C304.86 544.535 297.248 557.412 263.33 566.2C227.89 575.381 157.176 588.182 146.908 590.646" stroke="#FF6B88" stroke-width="0.769171" stroke-linecap="round" stroke-linejoin="round"/>
<path d="M126.516 538.83C125.375 530.98 128.541 525.011 132.374 524.11C137.359 522.936 145.253 529.492 150.452 553.679C155.955 579.275 151.593 589.705 146.908 590.705C143.94 591.336 140.545 588.436 138.882 583.767" stroke="#FF6B88" stroke-width="0.769171" stroke-linecap="round" stroke-linejoin="round"/>
<path d="M132.374 524.111C157.683 519.053 250.025 500.562 256.316 499.275" stroke="#FF6B88" stroke-width="0.769171" stroke-linecap="round" stroke-linejoin="round"/>
<path d="M372.81 310.123C323.059 301.045 267.181 313.308 249.294 355.709C233.61 392.933 238.447 439.877 242.443 501.997" stroke="#FF6B88" stroke-width="0.769171" stroke-linecap="round" stroke-linejoin="round"/>
<path d="M278.732 253.516C285.185 274.26 288.923 295.608 289.868 317.128" stroke="#FF6B88" stroke-width="0.769171" stroke-linecap="round" stroke-linejoin="round"/>
<path d="M234.912 364.463C235.056 348.122 236.719 309.734 237.732 301.045C253.755 295.598 270.097 290.943 286.687 287.104" stroke="#FF6B88" stroke-width="0.769171" stroke-linecap="round" stroke-linejoin="round"/>
<path d="M107.426 543.109C120.659 543.137 127.384 644.59 112.343 644.526C97.3021 644.461 91.3003 543.075 107.426 543.109Z" stroke="#FF6B88" stroke-width="0.769171" stroke-linecap="round" stroke-linejoin="round"/>
<path d="M107.427 543.109C115.8 541.423 122.901 539.355 144.595 535.068" stroke="#FF6B88" stroke-width="0.769171" stroke-linecap="round" stroke-linejoin="round"/>
<path d="M153.055 572.742C142.642 575.472 137.569 579.947 133.531 604.256C130.752 620.979 125.576 641.477 112.343 644.528" stroke="#FF6B88" stroke-width="0.769171" stroke-linecap="round" stroke-linejoin="round"/>
<path d="M421.187 566.778C412.654 565.287 407.268 562.041 407.52 558.543C407.839 554.065 417.286 550.649 444.037 552.577C473.833 554.728 480.482 560.229 480.482 563.925C480.482 567.232 474.393 568.399 469.064 568.399" stroke="#FF6B88" stroke-width="0.769171" stroke-linecap="round" stroke-linejoin="round"/>
<path d="M418.221 587.399C421.692 577.478 527.83 606.074 523.724 617.227C520.538 625.851 413.525 600.821 418.221 587.399Z" stroke="#FF6B88" stroke-width="0.769171" stroke-linecap="round" stroke-linejoin="round"/>
<path d="M418.222 587.398C419.451 579.941 420.319 571.447 423.5 552.246" stroke="#FF6B88" stroke-width="0.769171" stroke-linecap="round" stroke-linejoin="round"/>
<path d="M464.79 555.236C464.717 564.833 467.834 570.676 490.171 584.928C507.678 596.088 525.242 605.354 523.724 617.22" stroke="#FF6B88" stroke-width="0.769171" stroke-linecap="round" stroke-linejoin="round"/>
<path d="M361.673 339.889C391.732 357.063 420.701 375.724 448.447 395.784C477.574 417.524 480.554 425.613 480.554 463.287V563.925" stroke="#FF6B88" stroke-width="0.769171" stroke-linecap="round" stroke-linejoin="round"/>
<path d="M407.52 558.543C408.026 532.54 408.243 457.181 407.52 447.529C385.681 440.786 351.84 430.605 336.148 426.711" stroke="#FF6B88" stroke-width="0.769171" stroke-linecap="round" stroke-linejoin="round"/>
<path d="M350.176 307.531C321.034 339.888 302.667 414.719 286.686 520.869C242.07 533.448 174.531 547.519 150.089 552.059" stroke="#FF6B88" stroke-width="0.769171" stroke-linecap="round" stroke-linejoin="round"/>
<path d="M222.273 357.655C222.851 367.836 224.008 394.173 222.49 399.091C220.971 404.009 204.708 428.015 195.011 438.257C188.868 444.741 181.31 446.219 189.082 432.745C193.655 424.696 197.597 416.371 200.88 407.831C210.098 384.3 190.604 379.242 182.802 387.665C170.882 400.511 161.953 403.739 166.676 393.63C169.557 387.467 171.087 383.774 173.112 379.105C175.137 374.436 188.153 368.341 189.021 365.618C189.717 362.503 189.96 359.321 189.744 356.15" stroke="#FF6B88" stroke-width="0.769171" stroke-linecap="round" stroke-linejoin="round"/>
<path d="M196.152 418.867C190.166 424.344 183.408 429.096 176.05 433.003C167.079 437.716 163.974 433.327 174.527 424.509C181.906 418.362 188.56 411.55 194.383 404.182" stroke="#FF6B88" stroke-width="0.769171" stroke-linecap="round" stroke-linejoin="round"/>
<path d="M188.198 399.48C191.934 402.804 196.213 405.597 200.887 407.763" stroke="#FF6B88" stroke-width="0.769171" stroke-linecap="round" stroke-linejoin="round"/>
<path d="M185.812 413.939C178.952 416.997 171.687 419.263 164.191 420.683C154.432 422.516 155.738 417.393 166.071 413.485C174.373 409.962 182.248 405.681 189.572 400.711" stroke="#FF6B88" stroke-width="0.769171" stroke-linecap="round" stroke-linejoin="round"/>
<path d="M176.194 408.753C170.942 409.531 165.606 409.79 160.285 409.531C153.199 408.753 151.17 405.039 161.949 403.565C170.428 402.469 178.67 400.217 186.39 396.886C187.226 392.184 189.172 387.696 192.099 383.723" stroke="#FF6B88" stroke-width="0.769171" stroke-linecap="round" stroke-linejoin="round"/>
<path d="M354.587 431.643C354.226 417.572 353.286 377.433 354.587 361.287" stroke="#FF6B88" stroke-width="0.769171" stroke-linecap="round" stroke-linejoin="round"/>
<path d="M252.917 296.183C263.64 287.703 273.759 278.629 283.216 269.014" stroke="#FF6B88" stroke-width="0.769171" stroke-linecap="round" stroke-linejoin="round"/>
<path d="M485.905 196.776L480.196 191.199L475.279 177.646L489.958 183.158L558.711 250.142C559.814 251.307 560.372 252.808 560.27 254.333C560.168 255.858 559.413 257.288 558.162 258.326C556.912 259.363 555.263 259.928 553.56 259.901C551.857 259.874 550.231 259.259 549.021 258.183L494.426 204.942" stroke="#FF6B88" stroke-width="0.769171" stroke-linecap="round" stroke-linejoin="round"/>
<path d="M548.31 240.027C546.003 240.408 543.863 241.364 542.134 242.786C540.406 244.209 539.161 246.039 538.541 248.068" stroke="#FF6B88" stroke-width="0.769171" stroke-linecap="round" stroke-linejoin="round"/>
<path d="M552.215 243.854C549.909 244.235 547.771 245.192 546.044 246.615C544.317 248.037 543.073 249.867 542.453 251.894" stroke="#FF6B88" stroke-width="0.769171" stroke-linecap="round" stroke-linejoin="round"/>
<path d="M480.047 236.331C480.77 224.205 478.746 217.656 478.746 211.495C478.746 208.642 483.16 202.871 487.857 192.496C490.97 185.623 497.105 190.032 494.582 202.677C491.826 216.488 501.524 224.205 510.418 220.638" stroke="#FF6B88" stroke-width="0.769171" stroke-linecap="round" stroke-linejoin="round"/>
<path d="M505.357 198.139C510.636 198.852 515.119 199.565 517.155 200.019C517.444 203.234 517.444 206.466 517.155 209.681" stroke="#FF6B88" stroke-width="0.769171" stroke-linecap="round" stroke-linejoin="round"/>
<path d="M494.582 187.717C504.416 188.106 526.978 189.273 529.364 191.413C532.98 194.655 533.847 210.477 534.281 216.054" stroke="#FF6B88" stroke-width="0.769171" stroke-linecap="round" stroke-linejoin="round"/>
<path d="M532.907 201.834C545.562 222.39 545.706 225.178 540.211 232.116" stroke="#FF6B88" stroke-width="0.769171" stroke-linecap="round" stroke-linejoin="round"/>
<path d="M532.184 241.98C525.315 249.891 517.341 257.154 515.625 261.11" stroke="#FF6B88" stroke-width="0.769171" stroke-linecap="round" stroke-linejoin="round"/>
<path d="M362.853 189.521C367.916 185.627 372.469 181.231 376.425 176.415C368.47 166.624 377.334 160.477 380.691 167.467C382.625 171.494 384.668 165.327 384.668 160.334C387.314 160.483 389.901 161.1 392.28 162.15C407.538 154.174 415.709 112.868 378.469 116.305C383.222 80.9647 326.964 75.9717 324.867 105.466C296.159 85.4936 250.024 116.619 282.492 137.952C264.848 138.925 258.991 159.87 277.864 159.87C234.245 186.541 268.631 245.969 362.853 189.521Z" stroke="#FF6B88" stroke-width="0.769171" stroke-linecap="round" stroke-linejoin="round"/>
<path d="M320.673 217.268C343.162 205.726 369.556 185.87 376.425 176.416" stroke="#FF6B88" stroke-width="0.769171" stroke-linecap="round" stroke-linejoin="round"/>
<path d="M377.799 213.248C376.836 208.811 376.113 204.374 375.614 199.9C397.11 202.971 393.997 192.634 392.189 162.15" stroke="#FF6B88" stroke-width="0.769171" stroke-linecap="round" stroke-linejoin="round"/>
<path d="M375.615 199.899C375.285 196.963 375.049 194.019 374.907 191.07C382.427 195.998 389.369 199.111 391.683 195.998" stroke="#FF6B88" stroke-width="0.769171" stroke-linecap="round" stroke-linejoin="round"/>
</svg>
