<svg width="146" height="148" viewBox="0 0 146 148" fill="none" xmlns="http://www.w3.org/2000/svg">
<path d="M144.053 105.034C140.212 98.5464 133.204 90.0238 125.934 88.0791L123.898 92.9358C123.765 93.2349 123.539 93.4829 123.253 93.6428C122.968 93.8027 122.638 93.8658 122.313 93.8229L116.744 93.0376C116.405 92.9896 116.092 92.8281 115.857 92.5795C115.621 92.3308 115.477 92.0097 115.447 91.6685C115.427 91.4423 115.457 91.2145 115.537 91.0019L116.744 87.4247C112.872 88.4074 107.074 85.5191 103.614 83.4986L109.663 69.3248C108.503 67.9795 107.058 66.9086 105.434 66.1894C103.809 65.4702 102.046 65.1206 100.27 65.166L93.1883 80.7396C92.3029 82.6919 92.1522 84.8983 92.7641 86.9528C93.3759 89.0074 94.709 90.7719 96.5182 91.9218C100.769 94.6963 105.459 96.7317 110.39 97.9418C110.3 102.063 111.197 106.146 113.007 109.85C117.462 111.057 122.155 111.072 126.618 109.894C126.345 107.263 127.518 103.891 128.464 101.417L134.019 107.306L122.463 117.295C122.845 121.182 125.939 124.489 129.53 125.613L142.387 114.78C143.771 113.614 144.698 111.995 145.002 110.212C145.307 108.428 144.971 106.594 144.053 105.034Z" fill="#FFF1F4"/>
<path d="M17.7932 51.5081C17.0104 51.9577 16.1685 52.2954 15.2921 52.5115C7.2799 54.5327 2.96118 65.0169 0.900156 72.5928C0.364605 74.5573 0.602918 76.6524 1.56599 78.4464C2.52907 80.2405 4.14355 81.5968 6.07681 82.2359C11.7481 84.0607 17.6479 85.0789 23.6028 85.2605C25.2619 82.4798 25.7632 79.1589 24.9987 76.0123C20.4824 75.6214 16.0102 74.8274 11.6354 73.6398C12.4645 71.3286 13.5038 69.0983 14.7403 66.9769C15.8286 70.642 15.4122 69.23 16.5771 73.2181C21.3757 74.0033 27.0322 74.3523 32.3688 73C33.2256 69.8117 33.7375 66.5405 33.8956 63.2429C36.4936 65.3019 39.4045 66.9317 42.5178 68.0705C43.7163 68.5387 44.9965 68.762 46.2827 68.727C47.569 68.692 48.8352 68.3996 50.0065 67.867C55.2589 65.4746 58.5421 63.6791 64.9257 58.8951C64.9693 55.0998 63.2826 52.4533 59.8218 50.9847C55.7502 54.0238 50.9226 57.1356 46.4875 58.8951C43.4138 56.5968 40.1665 54.5403 36.7748 52.7441C33.0384 50.9234 27.7883 50.3303 27.0176 50.2285C24.6298 53.0296 22.3683 52.8513 17.7932 51.5081Z" fill="#FFF1F4"/>
<path d="M22.0683 77.1445C21.9071 77.1443 21.7495 77.1919 21.6155 77.2813C21.4814 77.3707 21.377 77.4979 21.3153 77.6468C21.2537 77.7957 21.2376 77.9595 21.2692 78.1175C21.3008 78.2756 21.3786 78.4206 21.4927 78.5344C21.5777 78.6199 21.6806 78.6854 21.794 78.7263C21.9074 78.7671 22.0285 78.7821 22.1484 78.7703C22.2684 78.7585 22.3842 78.7202 22.4875 78.6581C22.5908 78.5959 22.6789 78.5116 22.7456 78.4111C22.8351 78.2772 22.8826 78.1196 22.8826 77.9588C22.8788 77.744 22.7918 77.5391 22.6399 77.3872C22.488 77.2353 22.2831 77.1483 22.0683 77.1445Z" fill="#FFF1F4"/>
<path d="M10.2464 81.5935C10.4624 81.5935 10.6695 81.5077 10.8222 81.3549C10.9749 81.2022 11.0607 80.9951 11.0607 80.7791C11.0607 80.5632 10.9749 80.3561 10.8222 80.2033C10.6695 80.0506 10.4624 79.9648 10.2464 79.9648C10.0305 79.9648 9.82335 80.0506 9.67063 80.2033C9.51792 80.3561 9.43213 80.5632 9.43213 80.7791C9.43213 80.9951 9.51792 81.2022 9.67063 81.3549C9.82335 81.5077 10.0305 81.5935 10.2464 81.5935Z" fill="#FFF1F4"/>
<path d="M4.48765 70.7028C4.70361 70.7028 4.91073 70.617 5.06345 70.4643C5.21616 70.3116 5.30195 70.1045 5.30195 69.8885C5.30195 69.6726 5.21616 69.4654 5.06345 69.3127C4.91073 69.16 4.70361 69.0742 4.48765 69.0742C4.27168 69.0742 4.06456 69.16 3.91184 69.3127C3.75913 69.4654 3.67334 69.6726 3.67334 69.8885C3.67334 70.1045 3.75913 70.3116 3.91184 70.4643C4.06456 70.617 4.27168 70.7028 4.48765 70.7028Z" fill="#FFF1F4"/>
<path d="M14.3031 63.7966C14.519 63.7966 14.7262 63.7108 14.8789 63.5581C15.0316 63.4054 15.1174 63.1982 15.1174 62.9823C15.1174 62.7663 15.0316 62.5592 14.8789 62.4065C14.7262 62.2538 14.519 62.168 14.3031 62.168C14.0871 62.168 13.88 62.2538 13.7273 62.4065C13.5746 62.5592 13.4888 62.7663 13.4888 62.9823C13.4888 63.1982 13.5746 63.4054 13.7273 63.5581C13.88 63.7108 14.0871 63.7966 14.3031 63.7966Z" fill="#FFF1F4"/>
<path d="M18.055 52.7012C17.894 52.7012 17.7365 52.7489 17.6026 52.8384C17.4687 52.9279 17.3643 53.0551 17.3027 53.2039C17.2411 53.3527 17.2249 53.5164 17.2564 53.6743C17.2878 53.8323 17.3653 53.9774 17.4792 54.0913C17.5931 54.2052 17.7382 54.2827 17.8962 54.3141C18.0541 54.3456 18.2179 54.3294 18.3666 54.2678C18.5154 54.2062 18.6426 54.1018 18.7321 53.9679C18.8216 53.834 18.8693 53.6765 18.8693 53.5155C18.866 53.3006 18.7791 53.0954 18.6271 52.9434C18.4751 52.7914 18.27 52.7045 18.055 52.7012Z" fill="#FFF1F4"/>
<path d="M26.2123 60.873C26.0512 60.873 25.8938 60.9208 25.7599 61.0103C25.6259 61.0998 25.5216 61.2269 25.4599 61.3757C25.3983 61.5245 25.3822 61.6883 25.4136 61.8462C25.445 62.0042 25.5226 62.1493 25.6365 62.2632C25.7503 62.377 25.8954 62.4546 26.0534 62.486C26.2114 62.5174 26.3751 62.5013 26.5239 62.4397C26.6727 62.378 26.7998 62.2737 26.8893 62.1398C26.9788 62.0058 27.0266 61.8484 27.0266 61.6874C27.0232 61.4724 26.9363 61.2673 26.7843 61.1153C26.6324 60.9633 26.4272 60.8764 26.2123 60.873Z" fill="#FFF1F4"/>
<path d="M19.5961 68.2601C19.4871 68.2568 19.3786 68.2754 19.2769 68.3148C19.1752 68.3542 19.0825 68.4136 19.0042 68.4895C18.926 68.5654 18.8637 68.6563 18.8212 68.7567C18.7787 68.8571 18.7568 68.965 18.7568 69.0741C18.7568 69.1831 18.7787 69.291 18.8212 69.3915C18.8637 69.4919 18.926 69.5827 19.0042 69.6586C19.0825 69.7345 19.1752 69.794 19.2769 69.8334C19.3786 69.8728 19.4871 69.8913 19.5961 69.888C19.8076 69.8815 20.0084 69.7929 20.1557 69.641C20.303 69.489 20.3854 69.2857 20.3854 69.0741C20.3854 68.8624 20.303 68.6591 20.1557 68.5072C20.0084 68.3552 19.8076 68.2666 19.5961 68.2601Z" fill="#FFF1F4"/>
<path d="M38.1209 63.7966C38.3369 63.7966 38.544 63.7108 38.6967 63.5581C38.8495 63.4054 38.9353 63.1982 38.9353 62.9823C38.9353 62.7663 38.8495 62.5592 38.6967 62.4065C38.544 62.2538 38.3369 62.168 38.1209 62.168C37.905 62.168 37.6979 62.2538 37.5451 62.4065C37.3924 62.5592 37.3066 62.7663 37.3066 62.9823C37.3066 63.1982 37.3924 63.4054 37.5451 63.5581C37.6979 63.7108 37.905 63.7966 38.1209 63.7966Z" fill="#FFF1F4"/>
<path d="M45.9588 59.9121C45.7978 59.9121 45.6403 59.9599 45.5064 60.0493C45.3725 60.1388 45.2682 60.266 45.2065 60.4148C45.1449 60.5636 45.1288 60.7273 45.1602 60.8853C45.1916 61.0432 45.2692 61.1883 45.383 61.3022C45.4969 61.4161 45.642 61.4937 45.8 61.5251C45.9579 61.5565 46.1217 61.5404 46.2705 61.4787C46.4193 61.4171 46.5464 61.3127 46.6359 61.1788C46.7254 61.0449 46.7731 60.8875 46.7731 60.7264C46.7698 60.5115 46.6829 60.3063 46.5309 60.1543C46.3789 60.0023 46.1738 59.9155 45.9588 59.9121Z" fill="#FFF1F4"/>
<path d="M55.8319 63.3161C56.0478 63.3161 56.255 63.2303 56.4077 63.0776C56.5604 62.9249 56.6462 62.7178 56.6462 62.5018C56.6462 62.2858 56.5604 62.0787 56.4077 61.926C56.255 61.7733 56.0478 61.6875 55.8319 61.6875C55.6159 61.6875 55.4088 61.7733 55.2561 61.926C55.1034 62.0787 55.0176 62.2858 55.0176 62.5018C55.0176 62.7178 55.1034 62.9249 55.2561 63.0776C55.4088 63.2303 55.6159 63.3161 55.8319 63.3161Z" fill="#FFF1F4"/>
<path d="M60.1507 54.5466C60.3667 54.5466 60.5738 54.4608 60.7265 54.3081C60.8792 54.1554 60.965 53.9482 60.965 53.7323C60.965 53.5163 60.8792 53.3092 60.7265 53.1565C60.5738 53.0038 60.3667 52.918 60.1507 52.918C59.9348 52.918 59.7276 53.0038 59.5749 53.1565C59.4222 53.3092 59.3364 53.5163 59.3364 53.7323C59.3364 53.9482 59.4222 54.1554 59.5749 54.3081C59.7276 54.4608 59.9348 54.5466 60.1507 54.5466Z" fill="#FFF1F4"/>
<path d="M30.1966 69.873C30.0356 69.873 29.8781 69.9208 29.7442 70.0103C29.6103 70.0998 29.5059 70.2269 29.4443 70.3757C29.3827 70.5245 29.3666 70.6883 29.398 70.8462C29.4294 71.0042 29.5069 71.1493 29.6208 71.2632C29.7347 71.377 29.8798 71.4546 30.0378 71.486C30.1957 71.5174 30.3595 71.5013 30.5083 71.4397C30.657 71.378 30.7842 71.2737 30.8737 71.1398C30.9632 71.0058 31.0109 70.8484 31.0109 70.6874C31.0076 70.4724 30.9207 70.2673 30.7687 70.1153C30.6167 69.9633 30.4116 69.8764 30.1966 69.873Z" fill="#FFF1F4"/>
<path d="M31.8109 54.0388C32.0269 54.0388 32.234 53.953 32.3867 53.8003C32.5394 53.6475 32.6252 53.4404 32.6252 53.2245C32.6252 53.0085 32.5394 52.8014 32.3867 52.6487C32.234 52.4959 32.0269 52.4102 31.8109 52.4102C31.5949 52.4102 31.3878 52.4959 31.2351 52.6487C31.0824 52.8014 30.9966 53.0085 30.9966 53.2245C30.9966 53.4404 31.0824 53.6475 31.2351 53.8003C31.3878 53.953 31.5949 54.0388 31.8109 54.0388Z" fill="#FFF1F4"/>
<path fill-rule="evenodd" clip-rule="evenodd" d="M64.3823 17.2062L65.7783 13.5273C64.8781 12.2665 64.3904 10.7578 64.3823 9.20858C64.3823 4.78807 68.3084 1.21094 73.1506 1.21094C77.9929 1.21094 81.9044 4.78807 81.9044 9.20858C81.9044 13.6291 77.9783 17.2062 73.1361 17.2062C71.3296 17.216 69.56 16.6952 68.0467 15.7085L64.3823 17.2062ZM70.1123 9.68538C70.1749 9.59166 70.2185 9.48653 70.2405 9.37598C70.2624 9.26543 70.2624 9.15164 70.2404 9.04109C70.2184 8.93055 70.1749 8.82542 70.1123 8.7317C70.0496 8.63799 69.9692 8.55753 69.8754 8.49492C69.7817 8.4323 69.6766 8.38876 69.566 8.36678C69.4555 8.3448 69.3417 8.3448 69.2312 8.3668C69.1206 8.38879 69.0155 8.43235 68.9218 8.49497C68.8281 8.5576 68.7476 8.63807 68.685 8.73179C68.5585 8.92106 68.5124 9.15282 68.5569 9.37607C68.6013 9.59933 68.7326 9.79579 68.9218 9.92225C69.1111 10.0487 69.3429 10.0948 69.5661 10.0504C69.7894 10.0059 69.9859 9.87466 70.1123 9.68538ZM73.994 9.20858C73.9938 9.37818 73.9433 9.5439 73.849 9.68484C73.7546 9.82578 73.6207 9.93564 73.464 10.0006C73.3073 10.0655 73.135 10.0825 72.9686 10.0496C72.8022 10.0167 72.6493 9.9352 72.5292 9.81549C72.4295 9.71571 72.356 9.59289 72.315 9.4579C72.2741 9.32291 72.2672 9.17991 72.2947 9.04158C72.3222 8.90324 72.3835 8.77383 72.4729 8.6648C72.5624 8.55577 72.6774 8.47049 72.8077 8.4165C72.938 8.36251 73.0796 8.34148 73.22 8.35528C73.3604 8.36907 73.4952 8.41727 73.6125 8.49559C73.7298 8.57391 73.826 8.67995 73.8925 8.80431C73.9591 8.92868 73.994 9.06753 73.994 9.20858ZM77.601 9.68538C77.6871 9.55615 77.7365 9.40599 77.744 9.2509C77.7516 9.0958 77.7169 8.94157 77.6437 8.80462C77.5705 8.66768 77.4615 8.55314 77.3284 8.4732C77.1953 8.39325 77.043 8.3509 76.8877 8.35065C76.7181 8.3508 76.5522 8.40118 76.4111 8.49542C76.27 8.58967 76.16 8.72357 76.0949 8.88026C76.0468 8.99748 76.0252 9.12386 76.0317 9.25039C76.0381 9.37691 76.0725 9.50044 76.1322 9.61216C76.1919 9.72388 76.2756 9.82103 76.3772 9.89666C76.4789 9.97229 76.596 10.0245 76.7201 10.0497C76.8865 10.0827 77.0589 10.0657 77.2157 10.0008C77.3725 9.93602 77.5065 9.82626 77.601 9.68538Z" fill="#FFF1F4"/>
<path d="M63.2915 137.402L49.8119 137.056C49.6333 137.04 49.4549 137.088 49.3089 137.192C49.1628 137.296 49.0589 137.449 49.0159 137.623C48.9869 137.738 48.9856 137.858 49.0121 137.974L49.6244 140.475C52.3967 140.54 55.1703 140.423 57.9274 140.126C55.4011 141.16 52.7745 141.93 50.0897 142.422L51.3402 146.058C51.3674 146.173 51.4218 146.28 51.4989 146.369C51.576 146.459 51.6735 146.529 51.7832 146.573C51.893 146.617 52.0117 146.635 52.1295 146.623C52.2472 146.612 52.3605 146.573 52.4599 146.508C56.5371 144.491 60.295 141.884 63.613 138.772C63.745 138.69 63.848 138.569 63.9073 138.425C63.9666 138.282 63.9793 138.123 63.9436 137.972C63.9081 137.821 63.8261 137.684 63.7091 137.582C63.5922 137.48 63.4462 137.417 63.2915 137.402Z" fill="#FFF1F4"/>
<path d="M90.1784 27.4434H52.8366C51.6754 27.4428 50.5254 27.6711 49.4524 28.1152C48.3795 28.5593 47.4046 29.2106 46.5835 30.0318C45.7624 30.8529 45.1112 31.8279 44.6671 32.9009C44.2231 33.9739 43.9949 35.1239 43.9956 36.2852V42.2899H47.9202V37.1423C47.9246 36.3294 48.0918 35.5257 48.4121 34.7785C48.7324 34.0314 49.1993 33.356 49.785 32.7924C50.3708 32.2287 51.0636 31.7882 51.8225 31.4969C52.5814 31.2056 53.391 31.0693 54.2035 31.0963H89.0733C89.8853 31.0707 90.6942 31.2079 91.4525 31.4997C92.2107 31.7916 92.9028 32.2322 93.4882 32.7956C94.0736 33.359 94.5403 34.0338 94.8609 34.7803C95.1815 35.5268 95.3495 36.3299 95.355 37.1423V75.9673L99.0194 67.9114V36.2852C99.02 35.1239 98.7918 33.974 98.3477 32.901C97.9036 31.8281 97.2524 30.8531 96.4313 30.032C95.6103 29.2108 94.6354 28.5596 93.5625 28.1154C92.4895 27.6712 91.3396 27.4429 90.1784 27.4434Z" fill="#6153BD"/>
<path d="M95.3412 115.722V120.696C95.3413 121.521 95.1788 122.338 94.8632 123.1C94.5475 123.863 94.0848 124.555 93.5015 125.138C92.9181 125.722 92.2256 126.185 91.4634 126.5C90.7012 126.816 89.8843 126.978 89.0594 126.978H54.1889C52.5229 126.978 50.9252 126.316 49.7472 125.138C48.5692 123.96 47.9073 122.362 47.9071 120.696V81.5117H43.981V121.79C43.9804 123.538 44.4987 125.248 45.4703 126.701C46.4418 128.155 47.8228 129.288 49.4385 129.956C50.5115 130.4 51.661 130.629 52.822 130.628H90.1783C91.927 130.628 93.6365 130.11 95.0907 129.139C96.5448 128.168 97.6782 126.787 98.3474 125.171C98.7915 124.098 99.0198 122.948 99.0193 121.787V115.723L95.3412 115.722Z" fill="#6153BD"/>
<path d="M121.398 82.3945L120.016 84.0086C120.118 83.5259 120.167 83.0334 120.162 82.5399C120.577 82.5246 120.99 82.4757 121.398 82.3945Z" fill="#6153BD"/>
<path d="M24.9912 49.1542C24.5586 48.682 24.3198 48.0642 24.3223 47.4238C24.6399 47.6305 24.9713 47.8141 25.3141 47.9741C25.0862 48.3242 24.9733 48.7368 24.9912 49.1542Z" fill="#6153BD"/>
<path d="M15.8445 65.1484L15.5943 69.8743L14.7363 66.937C15.0585 66.3844 15.4228 65.8051 15.8445 65.1484Z" fill="#6153BD"/>
<path d="M33.8901 63.2435C33.9705 61.5368 33.9269 59.8256 33.7593 58.125L35.7491 64.6104C35.1134 64.177 34.4934 63.7211 33.8901 63.2435Z" fill="#6153BD"/>
<path d="M28.4519 36.1105C28.4283 35.8649 28.3233 35.6343 28.1535 35.4552C27.9838 35.2762 27.7592 35.1589 27.5152 35.1222C27.2712 35.0854 27.022 35.1312 26.8071 35.2523C26.5921 35.3734 26.4238 35.5629 26.3289 35.7906H26.1835C26.1089 35.5543 25.9575 35.3497 25.7534 35.2093C25.5492 35.0689 25.304 35.0007 25.0566 35.0157C24.8093 35.0307 24.5741 35.1278 24.3883 35.2918C24.2025 35.4558 24.0769 35.6771 24.0314 35.9207H23.9732C23.8984 35.6471 23.7216 35.4125 23.4792 35.2651C23.2368 35.1178 22.9471 35.0689 22.6698 35.1284C22.3924 35.188 22.1484 35.3515 21.9879 35.5854C21.8273 35.8193 21.7624 36.1058 21.8066 36.386C21.7198 36.1045 21.5247 35.869 21.2643 35.7313C21.0039 35.5935 20.6994 35.5649 20.4179 35.6517C20.1364 35.7385 19.9008 35.9335 19.7631 36.194C19.6254 36.4544 19.5968 36.7588 19.6836 37.0404C20.2562 38.7646 20.7416 40.5166 21.1377 42.2897C21.6175 44.6163 21.8647 47.1174 21.1377 48.4123C22.5773 46.3039 22.9408 44.1809 22.7081 43.9482C20.4688 41.7387 22.4464 39.6731 23.4788 41.2581C23.9732 42.0142 24.264 42.0142 24.424 41.5788C25.0929 39.3096 28.2774 36.1694 29.3986 40.9527L28.4519 36.1105Z" fill="#6153BD"/>
<path d="M129.046 79.0072C129.296 78.1906 129.443 77.3449 129.482 76.4916C129.657 71.2109 124.291 69.9917 120.54 73.089C122.59 71.7803 123.768 74.9793 123.564 76.9424C123.564 77.2883 123.682 77.6113 124.567 77.0189C126.123 75.9429 127.156 78.6039 124.248 79.7963C123.695 80.0144 123.1 82.7481 123.782 86.1217C124.044 87.4587 124.669 87.6523 125.934 88.0557C129.413 89.0705 132.89 91.521 135.401 93.9012C142.046 80.8976 129.032 79.0072 129.046 79.0072Z" fill="#6153BD"/>
<path d="M113.007 109.848L110.608 115.722" stroke="#FF6B88" stroke-width="0.769171" stroke-linecap="round" stroke-linejoin="round"/>
<path d="M47.9199 42.2888V37.1274C47.9238 36.3142 48.0907 35.51 48.4107 34.7625C48.7308 34.0149 49.1976 33.3391 49.7834 32.775C50.3692 32.2109 51.0622 31.7701 51.8214 31.4785C52.5805 31.187 53.3905 31.0506 54.2032 31.0776H89.073C89.8853 31.052 90.6946 31.1893 91.4531 31.4814C92.2115 31.7735 92.9039 32.2144 93.4893 32.7782C94.0747 33.342 94.5414 34.0173 94.8617 34.7642C95.1821 35.5112 95.3498 36.3147 95.3548 37.1274V75.9662" stroke="#FF6B88" stroke-width="0.769171" stroke-linecap="round" stroke-linejoin="round"/>
<path d="M99.0147 67.8972V36.2709C99.0139 35.1099 98.7851 33.9596 98.3405 32.8881C97.6695 31.2733 96.5349 29.8937 95.0801 28.9235C93.6252 27.9533 91.9154 27.4362 90.1668 27.4375H52.822C51.6605 27.4378 50.5104 27.6669 49.4374 28.1118C48.3645 28.5566 47.3897 29.2085 46.5687 30.0301C45.7477 30.8517 45.0966 31.827 44.6526 32.9004C44.2086 33.9737 43.9804 35.1239 43.981 36.2854V42.2902" stroke="#FF6B88" stroke-width="0.769171" stroke-linecap="round" stroke-linejoin="round"/>
<path d="M117.995 76.5039H106.594" stroke="#FF6B88" stroke-width="0.769171" stroke-linecap="round" stroke-linejoin="round"/>
<path d="M129.468 76.4961H136.782C137.223 76.4954 137.659 76.5817 138.066 76.7502C138.474 76.918 138.844 77.1649 139.156 77.4765C139.468 77.7873 139.716 78.1569 139.885 78.564C140.054 78.971 140.141 79.4075 140.141 79.8482V99.1153" stroke="#FF6B88" stroke-width="0.769171" stroke-linecap="round" stroke-linejoin="round"/>
<path d="M95.1114 76.5044H92.8537L83.1724 73.5234L86.2551 82.9752V112.364C86.2559 113.254 86.6101 114.108 87.2398 114.738C87.8696 115.368 88.7235 115.722 89.6141 115.723H124.247" stroke="#FF6B88" stroke-width="0.769171" stroke-linecap="round" stroke-linejoin="round"/>
<path d="M57.0968 52.947V45.6481C57.0966 44.7573 56.7426 43.903 56.1127 43.2731C55.4829 42.6432 54.6286 42.2893 53.7378 42.2891H29.6147" stroke="#FF6B88" stroke-width="0.769171" stroke-linecap="round" stroke-linejoin="round"/>
<path d="M95.3551 115.722V120.696C95.3552 121.521 95.1928 122.338 94.8771 123.1C94.5615 123.863 94.0987 124.555 93.5154 125.138C92.9321 125.722 92.2395 126.185 91.4773 126.5C90.7152 126.816 89.8983 126.978 89.0733 126.978H54.189C52.523 126.978 50.9254 126.316 49.7473 125.138C48.5693 123.96 47.9074 122.362 47.9072 120.696V81.5117" stroke="#FF6B88" stroke-width="0.769171" stroke-linecap="round" stroke-linejoin="round"/>
<path d="M43.981 81.5078V121.786C43.9804 122.947 44.2086 124.097 44.6527 125.17C45.0968 126.243 45.7479 127.218 46.569 128.04C47.3901 128.861 48.3649 129.512 49.4378 129.956C50.5108 130.401 51.6607 130.629 52.822 130.629H90.1783C91.927 130.629 93.6365 130.111 95.0907 129.14C96.5448 128.168 97.6782 126.787 98.3474 125.172C98.7915 124.099 99.0198 122.949 99.0193 121.788V115.724" stroke="#FF6B88" stroke-width="0.769171" stroke-linecap="round" stroke-linejoin="round"/>
<path d="M21.1082 42.2891H6.55252C5.66217 42.2901 4.80862 42.6444 4.17927 43.2742C3.54992 43.9039 3.19621 44.7577 3.1958 45.6481V65.7761" stroke="#FF6B88" stroke-width="0.769171" stroke-linecap="round" stroke-linejoin="round"/>
<path d="M39.7939 81.5065H50.4955L60.1654 84.4729L57.0972 75.0356V64.2461" stroke="#FF6B88" stroke-width="0.769171" stroke-linecap="round" stroke-linejoin="round"/>
<path d="M73.4265 130.628C70.4567 133.897 66.8548 136.53 62.8385 138.368C58.8222 140.205 54.475 141.209 50.0597 141.319C45.6444 141.429 41.2527 140.642 37.1501 139.006C33.0476 137.37 29.3193 134.92 26.1909 131.802C23.0624 128.684 20.5987 124.965 18.9486 120.868C17.2986 116.771 16.4966 112.382 16.591 107.966C16.6854 103.55 17.6743 99.1998 19.4979 95.1772C21.3215 91.1546 23.942 87.5436 27.2008 84.5625" stroke="#FF6B88" stroke-width="0.769171" stroke-linecap="round" stroke-linejoin="round"/>
<path d="M63.2915 137.402L49.8119 137.056C49.6333 137.04 49.4549 137.088 49.3089 137.192C49.1628 137.296 49.0589 137.449 49.0159 137.623C48.9869 137.738 48.9856 137.858 49.0121 137.974L49.6244 140.475C52.3967 140.54 55.1703 140.423 57.9274 140.126C55.4011 141.16 52.7745 141.93 50.0897 142.422L51.3402 146.058C51.3674 146.173 51.4218 146.28 51.4989 146.369C51.576 146.459 51.6735 146.529 51.7832 146.573C51.893 146.617 52.0117 146.635 52.1295 146.623C52.2472 146.612 52.3605 146.573 52.4599 146.508C56.5371 144.491 60.295 141.884 63.613 138.772C63.745 138.69 63.848 138.569 63.9073 138.425C63.9666 138.282 63.9793 138.123 63.9436 137.972C63.9081 137.821 63.8261 137.684 63.7091 137.582C63.5922 137.48 63.4462 137.417 63.2915 137.402Z" stroke="#FF6B88" stroke-width="0.769171" stroke-linecap="round" stroke-linejoin="round"/>
<path d="M120.161 82.5254C120.576 82.5175 120.99 82.4737 121.397 82.3945L120.016 83.9941" stroke="#FF6B88" stroke-width="0.769171" stroke-linecap="round" stroke-linejoin="round"/>
<path d="M110.39 97.9089C105.446 96.7548 100.748 94.7259 96.5183 91.918C94.7102 90.7671 93.378 89.0025 92.7663 86.9484C92.1546 84.8942 92.3045 82.6884 93.1883 80.7358L100.269 65.1484C103.953 65.3972 106.935 66.1173 109.663 69.3064L103.617 83.4986C106.336 85.0836 109.695 86.7574 112.807 87.3666C117.074 88.2016 120.165 86.8676 120.165 82.5244C118.231 82.5825 115.031 81.87 118.376 75.7773C121.72 69.6845 123.945 74.3997 123.669 76.9696C123.683 77.4204 123.916 77.5368 124.672 77.0133C126.228 75.9365 127.268 78.6205 124.352 79.7906C123.801 80.0126 123.204 82.7433 123.887 86.116C124.408 88.6753 126.201 87.0597 131.478 90.708C137.339 94.7642 141.574 100.636 144.157 105.001C145.081 106.56 145.422 108.397 145.118 110.184C144.815 111.971 143.887 113.592 142.5 114.758L129.544 125.606C127.694 125.037 126.045 123.952 124.791 122.479C123.537 121.006 122.729 119.205 122.462 117.288L134.018 107.299L127.213 100.073" stroke="#FF6B88" stroke-width="0.769171" stroke-linecap="round" stroke-linejoin="round"/>
<path d="M24.9907 49.1523C24.5581 48.6801 24.3193 48.0623 24.3218 47.4219C24.6394 47.6285 24.9708 47.8122 25.3137 47.9721" stroke="#FF6B88" stroke-width="0.769171" stroke-linecap="round" stroke-linejoin="round"/>
<path d="M24.4091 41.5762C25.078 39.3077 28.277 36.1668 29.3837 40.9509L29.6309 42.4923C30.4016 49.5332 27.0571 48.7886 25.3122 47.9743C25.3122 47.9743 24.0922 49.7781 26.3262 50.1524C26.6844 50.2121 26.9278 50.2174 27.015 50.2289C25.2701 52.7882 22.0404 52.9481 17.7959 51.5085C21.7427 49.2723 23.1631 44.4423 22.6817 43.9617C20.4623 41.7484 22.4185 39.6873 23.4524 41.2716C23.946 42.0285 24.2086 42.0132 24.3976 41.606L24.4091 41.5762Z" stroke="#FF6B88" stroke-width="0.769171" stroke-linecap="round" stroke-linejoin="round"/>
<path d="M14.7324 66.9776C15.0959 66.3635 15.4666 65.7538 15.8444 65.1484L15.5942 69.8889" stroke="#FF6B88" stroke-width="0.769171" stroke-linecap="round" stroke-linejoin="round"/>
<path d="M33.8901 63.2435C33.9705 61.5368 33.9269 59.8256 33.7593 58.125L35.7491 64.6104" stroke="#FF6B88" stroke-width="0.769171" stroke-linecap="round" stroke-linejoin="round"/>
<path d="M17.7932 51.5081C17.0104 51.9577 16.1685 52.2954 15.2921 52.5115C7.2799 54.5327 2.96118 65.0169 0.900156 72.5928C0.364605 74.5573 0.602918 76.6524 1.56599 78.4464C2.52907 80.2405 4.14355 81.5968 6.07681 82.2359C11.7481 84.0607 17.6479 85.0789 23.6028 85.2605C25.2619 82.4798 25.7632 79.1589 24.9987 76.0123C20.4824 75.6214 16.0102 74.8274 11.6354 73.6398C12.4645 71.3286 13.5038 69.0983 14.7403 66.9769C15.8286 70.642 15.4122 69.23 16.5771 73.2181C21.3757 74.0033 27.0322 74.3523 32.3688 73C33.2256 69.8117 33.7375 66.5405 33.8956 63.2429C36.4936 65.3019 39.4045 66.9317 42.5178 68.0705C43.7163 68.5387 44.9965 68.762 46.2827 68.727C47.569 68.692 48.8352 68.3996 50.0065 67.867C55.2589 65.4746 58.5421 63.6791 64.9257 58.8951C64.9693 55.0998 63.2826 52.4533 59.8218 50.9847C55.7502 54.0238 50.9226 57.1356 46.4875 58.8951C43.4138 56.5968 40.1665 54.5403 36.7748 52.7441C33.0384 50.9234 27.7883 50.3303 27.0176 50.2285" stroke="#FF6B88" stroke-width="0.769171" stroke-linecap="round" stroke-linejoin="round"/>
<path d="M104.865 58.363C104.926 58.1887 105.028 58.0314 105.162 57.9041C105.296 57.7768 105.458 57.6831 105.635 57.6306C106.405 57.4271 107.54 59.0411 107.176 61.1205C106.989 62.2494 106.195 62.7591 105.743 61.057" stroke="#FF6B88" stroke-width="0.769171" stroke-linecap="round" stroke-linejoin="round"/>
<path d="M106.435 57.9787C106.563 57.8517 106.724 57.7606 106.9 57.717C107.672 57.5188 108.848 58.6912 108.572 60.7997C108.428 61.8949 107.77 62.162 107.221 60.8081" stroke="#FF6B88" stroke-width="0.769171" stroke-linecap="round" stroke-linejoin="round"/>
<path d="M101.055 65.1931C102.785 62.0813 102.653 61.2089 103.105 59.7257C103.322 59.0131 103.627 58.3848 104.253 58.2279C105.018 58.0351 105.993 59.3323 105.707 61.3658C105.589 62.2076 104.457 62.0346 104.253 59.8971" stroke="#FF6B88" stroke-width="0.769171" stroke-linecap="round" stroke-linejoin="round"/>
<path d="M109.139 68.7406C109.692 67.5336 113.547 60.4934 113.109 60.2921C112.631 60.0717 110.026 62.3861 110.026 62.3861C110.026 62.3861 106.973 62.8078 107.176 64.7586" stroke="#FF6B88" stroke-width="0.769171" stroke-linecap="round" stroke-linejoin="round"/>
<path d="M110.011 62.3857C111.291 57.3108 110.317 53.0487 110.055 53.8064C109.559 55.2452 108.95 59.0872 108.572 60.7862" stroke="#FF6B88" stroke-width="0.769171" stroke-linecap="round" stroke-linejoin="round"/>
<path d="M103.556 60.7858C103.846 60.7077 104.154 60.7262 104.433 60.8387" stroke="#FF6B88" stroke-width="0.769171" stroke-linecap="round" stroke-linejoin="round"/>
<path d="M61.5903 51.9005C64.3822 51.188 78.5163 53.0638 77.9055 54.4452C74.4011 54.9809 69.141 54.4513 66.1126 56.1901C65.9091 56.3072 65.1942 56.8024 64.8039 57.0771" stroke="#FF6B88" stroke-width="0.769171" stroke-linecap="round" stroke-linejoin="round"/>
<path d="M61.9829 51.8273C67.4213 50.5477 73.4414 43.4225 68.381 50.6349C67.9012 51.4347 67.6685 51.8855 68.3519 52.0454" stroke="#FF6B88" stroke-width="0.769171" stroke-linecap="round" stroke-linejoin="round"/>
<path d="M66.3159 56.0743C69.0787 54.9837 83.5763 58.6336 73.5138 54.7656" stroke="#FF6B88" stroke-width="0.769171" stroke-linecap="round" stroke-linejoin="round"/>
<path d="M66.3306 56.059C67.4786 55.4467 78.4725 59.8856 72.656 56.219" stroke="#FF6B88" stroke-width="0.769171" stroke-linecap="round" stroke-linejoin="round"/>
<path d="M32.5845 81.5078C34.8238 82.7323 35.6106 84.9273 34.8529 85.5212C34.4687 85.7216 34.0302 85.793 33.6024 85.7248" stroke="#FF6B88" stroke-width="0.769171" stroke-linecap="round" stroke-linejoin="round"/>
<path d="M33.4263 80.2129C35.6656 81.4374 36.4485 83.627 35.6947 84.2263C35.5138 84.3429 35.3109 84.4211 35.0985 84.4559" stroke="#FF6B88" stroke-width="0.769171" stroke-linecap="round" stroke-linejoin="round"/>
<path d="M23.9004 84.7349C26.4506 84.2762 29.0792 84.5745 31.4618 85.5928" stroke="#FF6B88" stroke-width="0.769171" stroke-linecap="round" stroke-linejoin="round"/>
<path d="M31.3161 82.7715C33.4391 84.022 34.0031 85.7784 33.2937 86.4213C32.4618 87.1736 29.6729 86.7848 28.8877 84.7927" stroke="#FF6B88" stroke-width="0.769171" stroke-linecap="round" stroke-linejoin="round"/>
<path d="M25.0635 76.4753C26.9538 76.4171 34.255 76.7516 34.2826 77.3041C34.314 77.9439 32.5813 78.3075 32.5813 78.3075" stroke="#FF6B88" stroke-width="0.769171" stroke-linecap="round" stroke-linejoin="round"/>
<path d="M25.0781 76.4902C27.4529 76.6617 29.7872 77.1966 31.9997 78.0752C31.9997 78.0752 37.9938 80.3712 40.7091 80.9689C41.6122 81.1671 39.0254 82.234 34.559 81.0271" stroke="#FF6B88" stroke-width="0.769171" stroke-linecap="round" stroke-linejoin="round"/>
<path d="M16.5713 73.2188C16.0124 73.5528 15.5196 73.9865 15.1172 74.4984" stroke="#FF6B88" stroke-width="0.769171" stroke-linecap="round" stroke-linejoin="round"/>
<path d="M32.3633 73L32.9013 76.897" stroke="#FF6B88" stroke-width="0.769171" stroke-linecap="round" stroke-linejoin="round"/>
<path d="M128.377 101.325C127.403 103.826 126.239 107.476 126.617 109.89C122.154 111.068 117.461 111.053 113.006 109.847C109.153 101.311 109.967 95.1752 112.439 91.0195" stroke="#FF6B88" stroke-width="0.769171" stroke-linecap="round" stroke-linejoin="round"/>
<path d="M120.46 73.1523C124.754 69.5415 131.223 71.6133 129.032 79.0101C129.032 79.0101 142.042 80.9005 135.401 93.9003" stroke="#FF6B88" stroke-width="0.769171" stroke-linecap="round" stroke-linejoin="round"/>
<path d="M126.618 109.887C127.508 110.323 128.308 110.925 128.973 111.661" stroke="#FF6B88" stroke-width="0.769171" stroke-linecap="round" stroke-linejoin="round"/>
<path d="M126.022 88.0788L123.898 92.921C123.766 93.2203 123.539 93.4684 123.254 93.6283C122.968 93.7882 122.638 93.8513 122.314 93.8081L116.744 93.0374C116.405 92.9894 116.092 92.8279 115.857 92.5792C115.621 92.3306 115.477 92.0094 115.447 91.6682C115.427 91.442 115.457 91.2142 115.537 91.0016L116.919 87.3809" stroke="#FF6B88" stroke-width="0.769171" stroke-linecap="round" stroke-linejoin="round"/>
<path d="M29.3966 40.9514L28.4223 36.0946C28.3866 35.8472 28.2714 35.618 28.0941 35.4417C27.9169 35.2653 27.6871 35.1513 27.4395 35.1168C27.1918 35.0822 26.9397 35.1291 26.7209 35.2502C26.5022 35.3714 26.3287 35.5603 26.2266 35.7885C26.1402 35.55 25.9791 35.3457 25.7673 35.2061C25.5554 35.0665 25.3042 34.999 25.0509 35.0137C24.7976 35.0284 24.5558 35.1245 24.3616 35.2877C24.1673 35.4509 24.0309 35.6724 23.9727 35.9194C23.8966 35.6432 23.718 35.4064 23.4732 35.2575C23.2284 35.1086 22.9361 35.0587 22.6558 35.1181C22.3755 35.1775 22.1285 35.3417 21.9651 35.5771C21.8018 35.8125 21.7345 36.1014 21.777 36.3847C21.6839 36.111 21.4877 35.8843 21.2302 35.7529C20.9726 35.6215 20.674 35.5956 20.3977 35.6808C20.1214 35.7659 19.8892 35.9554 19.7503 36.209C19.6115 36.4626 19.5769 36.7604 19.654 37.039C20.2267 38.7633 20.712 40.5153 21.1081 42.2884C21.5811 44.5844 21.8283 47.0472 21.138 48.3559" stroke="#FF6B88" stroke-width="0.769171" stroke-linecap="round" stroke-linejoin="round"/>
<path d="M70.2567 9.20987C70.2567 9.43751 70.1662 9.65583 70.0053 9.81679C69.8443 9.97776 69.626 10.0682 69.3983 10.0682C69.1707 10.0682 68.9524 9.97776 68.7914 9.81679C68.6305 9.65583 68.54 9.43751 68.54 9.20987C68.54 8.98224 68.6305 8.76392 68.7914 8.60296C68.9524 8.44199 69.1707 8.35156 69.3983 8.35156C69.626 8.35156 69.8443 8.44199 70.0053 8.60296C70.1662 8.76392 70.2567 8.98224 70.2567 9.20987Z" stroke="#FF6B88" stroke-width="0.769171" stroke-linecap="round" stroke-linejoin="round"/>
<path d="M73.9937 9.20898C73.9934 9.37858 73.9429 9.54429 73.8486 9.68524C73.7543 9.82618 73.6204 9.93603 73.4637 10.0009C73.307 10.0659 73.1346 10.0829 72.9682 10.05C72.8019 10.0171 72.649 9.9356 72.5289 9.81588C72.4292 9.7161 72.3556 9.59328 72.3147 9.45829C72.2738 9.32331 72.2668 9.18031 72.2943 9.04198C72.3219 8.90364 72.3831 8.77423 72.4726 8.6652C72.5621 8.55617 72.6771 8.47089 72.8074 8.4169C72.9377 8.36291 73.0793 8.34188 73.2197 8.35568C73.36 8.36947 73.4948 8.41766 73.6122 8.49599C73.7295 8.57431 73.8256 8.68035 73.8922 8.80471C73.9587 8.92908 73.9936 9.06793 73.9937 9.20898Z" stroke="#FF6B88" stroke-width="0.769171" stroke-linecap="round" stroke-linejoin="round"/>
<path d="M77.7452 9.20867C77.7449 9.37827 77.6944 9.54399 77.6001 9.68493C77.5058 9.82587 77.3718 9.93573 77.2151 10.0006C77.0585 10.0656 76.8861 10.0826 76.7197 10.0497C76.5534 10.0168 76.4005 9.93529 76.2803 9.81558C76.191 9.72567 76.1226 9.61713 76.0801 9.49772C76.0376 9.37831 76.022 9.25098 76.0344 9.12484C76.0469 8.9987 76.087 8.87686 76.152 8.76805C76.217 8.65923 76.3053 8.56613 76.4104 8.49539C76.5756 8.38555 76.7736 8.33621 76.971 8.35574C77.1684 8.37527 77.353 8.46246 77.4934 8.60254C77.6541 8.76325 77.7444 8.98137 77.7452 9.20867Z" stroke="#FF6B88" stroke-width="0.769171" stroke-linecap="round" stroke-linejoin="round"/>
<path d="M107.7 123.181C107.7 123.432 107.625 123.677 107.486 123.884C107.348 124.093 107.15 124.255 106.919 124.351C106.688 124.447 106.433 124.471 106.188 124.422C105.943 124.373 105.717 124.253 105.54 124.076C105.363 123.899 105.243 123.673 105.194 123.428C105.16 123.255 105.164 123.077 105.203 122.906C105.242 122.734 105.317 122.573 105.422 122.432C105.527 122.291 105.66 122.174 105.814 122.087C105.967 122.001 106.136 121.947 106.311 121.93C106.487 121.913 106.663 121.932 106.83 121.987C106.997 122.042 107.151 122.131 107.282 122.249C107.413 122.367 107.517 122.511 107.589 122.671C107.661 122.832 107.699 123.006 107.7 123.181Z" stroke="#FF6B88" stroke-width="0.769171" stroke-linecap="round" stroke-linejoin="round"/>
<path d="M35.729 28.084V34.3658" stroke="#FF6B88" stroke-width="0.769171" stroke-linecap="round" stroke-linejoin="round"/>
<path d="M38.8628 31.2246H32.5811" stroke="#FF6B88" stroke-width="0.769171" stroke-linecap="round" stroke-linejoin="round"/>
<path d="M123.331 123.254C121.941 124.899 120.755 126.705 119.798 128.634C119.221 129.584 118.748 130.593 118.387 131.644C117.364 134.609 118.224 134.536 119.783 132.211C123.745 126.303 125.614 125.726 127.054 124.446" stroke="#FF6B88" stroke-width="0.769171" stroke-linecap="round" stroke-linejoin="round"/>
<path d="M118.707 130.773C117.777 131.416 116.765 131.934 115.699 132.312C115.393 132.395 114.914 132.153 116.397 130.873C116.717 130.597 118.039 129.403 118.491 128.953C119.435 128.089 120.329 127.171 121.169 126.205" stroke="#FF6B88" stroke-width="0.769171" stroke-linecap="round" stroke-linejoin="round"/>
<path d="M122.27 124.606C122.895 123.297 119.871 124.166 118.547 124.376C117.355 124.563 115.945 124.335 118.94 122.864C120.504 122.113 121.929 121.104 123.157 119.879" stroke="#FF6B88" stroke-width="0.769171" stroke-linecap="round" stroke-linejoin="round"/>
<path d="M65.7783 13.5273L64.3823 17.2062L68.0467 15.7085C69.56 16.6952 71.3296 17.216 73.1361 17.2062C77.9783 17.2062 81.9044 13.6291 81.9044 9.20858C81.9044 4.78807 77.9929 1.21094 73.1506 1.21094C68.3084 1.21094 64.3823 4.78807 64.3823 9.20858C64.3904 10.7578 64.8781 12.2665 65.7783 13.5273Z" stroke="#FF6B88" stroke-width="0.769171" stroke-linecap="round" stroke-linejoin="round"/>
<path d="M134.019 107.301L135.124 106.443" stroke="#FF6B88" stroke-width="0.769171" stroke-linecap="round" stroke-linejoin="round"/>
<path d="M46.4819 58.8945L47.6452 59.7234" stroke="#FF6B88" stroke-width="0.769171" stroke-linecap="round" stroke-linejoin="round"/>
<path d="M11.6126 73.625L11.0601 74.9483" stroke="#FF6B88" stroke-width="0.769171" stroke-linecap="round" stroke-linejoin="round"/>
<path d="M22.0683 77.1445C21.9071 77.1443 21.7495 77.1919 21.6155 77.2813C21.4814 77.3707 21.377 77.4979 21.3153 77.6468C21.2537 77.7957 21.2376 77.9595 21.2692 78.1175C21.3008 78.2756 21.3786 78.4206 21.4927 78.5344C21.5777 78.6199 21.6806 78.6854 21.794 78.7263C21.9074 78.7671 22.0285 78.7821 22.1484 78.7703C22.2684 78.7585 22.3842 78.7202 22.4875 78.6581C22.5908 78.5959 22.6789 78.5116 22.7456 78.4111C22.8351 78.2772 22.8826 78.1196 22.8826 77.9588C22.8788 77.744 22.7918 77.5391 22.6399 77.3872C22.488 77.2353 22.2831 77.1483 22.0683 77.1445Z" stroke="#FF6B88" stroke-width="0.769171"/>
<path d="M10.2459 81.5935C10.4619 81.5935 10.669 81.5077 10.8217 81.3549C10.9745 81.2022 11.0603 80.9951 11.0603 80.7791C11.0603 80.5632 10.9745 80.3561 10.8217 80.2033C10.669 80.0506 10.4619 79.9648 10.2459 79.9648C10.03 79.9648 9.82286 80.0506 9.67014 80.2033C9.51743 80.3561 9.43164 80.5632 9.43164 80.7791C9.43164 80.9951 9.51743 81.2022 9.67014 81.3549C9.82286 81.5077 10.03 81.5935 10.2459 81.5935Z" stroke="#FF6B88" stroke-width="0.769171"/>
<path d="M4.48765 70.7028C4.70361 70.7028 4.91073 70.617 5.06345 70.4643C5.21616 70.3116 5.30195 70.1045 5.30195 69.8885C5.30195 69.6726 5.21616 69.4654 5.06345 69.3127C4.91073 69.16 4.70361 69.0742 4.48765 69.0742C4.27168 69.0742 4.06456 69.16 3.91184 69.3127C3.75913 69.4654 3.67334 69.6726 3.67334 69.8885C3.67334 70.1045 3.75913 70.3116 3.91184 70.4643C4.06456 70.617 4.27168 70.7028 4.48765 70.7028Z" stroke="#FF6B88" stroke-width="0.769171"/>
<path d="M14.3031 63.7966C14.519 63.7966 14.7262 63.7108 14.8789 63.5581C15.0316 63.4054 15.1174 63.1982 15.1174 62.9823C15.1174 62.7663 15.0316 62.5592 14.8789 62.4065C14.7262 62.2538 14.519 62.168 14.3031 62.168C14.0871 62.168 13.88 62.2538 13.7273 62.4065C13.5746 62.5592 13.4888 62.7663 13.4888 62.9823C13.4888 63.1982 13.5746 63.4054 13.7273 63.5581C13.88 63.7108 14.0871 63.7966 14.3031 63.7966Z" stroke="#FF6B88" stroke-width="0.769171"/>
<path d="M18.0545 52.7012C17.8935 52.7012 17.736 52.7489 17.6021 52.8384C17.4682 52.9279 17.3639 53.0551 17.3022 53.2039C17.2406 53.3527 17.2245 53.5164 17.2559 53.6743C17.2873 53.8323 17.3649 53.9774 17.4787 54.0913C17.5926 54.2052 17.7377 54.2827 17.8957 54.3141C18.0536 54.3456 18.2174 54.3294 18.3662 54.2678C18.515 54.2062 18.6421 54.1018 18.7316 53.9679C18.8211 53.834 18.8688 53.6765 18.8688 53.5155C18.8655 53.3006 18.7786 53.0954 18.6266 52.9434C18.4746 52.7914 18.2695 52.7045 18.0545 52.7012Z" stroke="#FF6B88" stroke-width="0.769171"/>
<path d="M26.2123 60.873C26.0512 60.873 25.8938 60.9208 25.7599 61.0103C25.6259 61.0998 25.5216 61.2269 25.4599 61.3757C25.3983 61.5245 25.3822 61.6883 25.4136 61.8462C25.445 62.0042 25.5226 62.1493 25.6365 62.2632C25.7503 62.377 25.8954 62.4546 26.0534 62.486C26.2114 62.5174 26.3751 62.5013 26.5239 62.4397C26.6727 62.378 26.7998 62.2737 26.8893 62.1398C26.9788 62.0058 27.0266 61.8484 27.0266 61.6874C27.0232 61.4724 26.9363 61.2673 26.7843 61.1153C26.6324 60.9633 26.4272 60.8764 26.2123 60.873Z" stroke="#FF6B88" stroke-width="0.769171"/>
<path d="M19.5961 68.2601C19.4871 68.2568 19.3786 68.2754 19.2769 68.3148C19.1752 68.3542 19.0825 68.4136 19.0042 68.4895C18.926 68.5654 18.8637 68.6563 18.8212 68.7567C18.7787 68.8571 18.7568 68.965 18.7568 69.0741C18.7568 69.1831 18.7787 69.291 18.8212 69.3915C18.8637 69.4919 18.926 69.5827 19.0042 69.6586C19.0825 69.7345 19.1752 69.794 19.2769 69.8334C19.3786 69.8728 19.4871 69.8913 19.5961 69.888C19.8076 69.8815 20.0084 69.7929 20.1557 69.641C20.303 69.489 20.3854 69.2857 20.3854 69.0741C20.3854 68.8624 20.303 68.6591 20.1557 68.5072C20.0084 68.3552 19.8076 68.2666 19.5961 68.2601Z" stroke="#FF6B88" stroke-width="0.769171"/>
<path d="M38.1209 63.7966C38.3369 63.7966 38.544 63.7108 38.6967 63.5581C38.8495 63.4054 38.9353 63.1982 38.9353 62.9823C38.9353 62.7663 38.8495 62.5592 38.6967 62.4065C38.544 62.2538 38.3369 62.168 38.1209 62.168C37.905 62.168 37.6979 62.2538 37.5451 62.4065C37.3924 62.5592 37.3066 62.7663 37.3066 62.9823C37.3066 63.1982 37.3924 63.4054 37.5451 63.5581C37.6979 63.7108 37.905 63.7966 38.1209 63.7966Z" stroke="#FF6B88" stroke-width="0.769171"/>
<path d="M45.9583 59.9121C45.7973 59.9121 45.6399 59.9599 45.5059 60.0493C45.372 60.1388 45.2677 60.266 45.206 60.4148C45.1444 60.5636 45.1283 60.7273 45.1597 60.8853C45.1911 61.0432 45.2687 61.1883 45.3825 61.3022C45.4964 61.4161 45.6415 61.4937 45.7995 61.5251C45.9574 61.5565 46.1212 61.5404 46.27 61.4787C46.4188 61.4171 46.5459 61.3127 46.6354 61.1788C46.7249 61.0449 46.7727 60.8875 46.7727 60.7264C46.7693 60.5115 46.6824 60.3063 46.5304 60.1543C46.3784 60.0023 46.1733 59.9155 45.9583 59.9121Z" stroke="#FF6B88" stroke-width="0.769171"/>
<path d="M55.8319 63.3161C56.0478 63.3161 56.255 63.2303 56.4077 63.0776C56.5604 62.9249 56.6462 62.7178 56.6462 62.5018C56.6462 62.2858 56.5604 62.0787 56.4077 61.926C56.255 61.7733 56.0478 61.6875 55.8319 61.6875C55.6159 61.6875 55.4088 61.7733 55.2561 61.926C55.1034 62.0787 55.0176 62.2858 55.0176 62.5018C55.0176 62.7178 55.1034 62.9249 55.2561 63.0776C55.4088 63.2303 55.6159 63.3161 55.8319 63.3161Z" stroke="#FF6B88" stroke-width="0.769171"/>
<path d="M60.1507 54.5485C60.3667 54.5485 60.5738 54.4627 60.7265 54.31C60.8792 54.1573 60.965 53.9502 60.965 53.7342C60.965 53.5183 60.8792 53.3111 60.7265 53.1584C60.5738 53.0057 60.3667 52.9199 60.1507 52.9199C59.9348 52.9199 59.7276 53.0057 59.5749 53.1584C59.4222 53.3092 59.3364 53.5183 59.3364 53.7342C59.3364 53.9502 59.4222 54.1573 59.5749 54.31C59.7276 54.4627 59.9348 54.5485 60.1507 54.5485Z" stroke="#FF6B88" stroke-width="0.769171"/>
<path d="M30.1966 69.875C30.0356 69.875 29.8781 69.9228 29.7442 70.0122C29.6103 70.1017 29.5059 70.2289 29.4443 70.3777C29.3827 70.5265 29.3666 70.6902 29.398 70.8482C29.4294 71.0061 29.5069 71.1512 29.6208 71.2651C29.7347 71.379 29.8798 71.4565 30.0378 71.488C30.1957 71.5194 30.3595 71.5033 30.5083 71.4416C30.657 71.38 30.7842 71.2756 30.8737 71.1417C30.9632 71.0078 31.0109 70.8504 31.0109 70.6893C31.0076 70.4744 30.9207 70.2692 30.7687 70.1172C30.6167 69.9652 30.4116 69.8784 30.1966 69.875Z" stroke="#FF6B88" stroke-width="0.769171"/>
<path d="M31.8104 54.0388C32.0264 54.0388 32.2335 53.953 32.3862 53.8003C32.5389 53.6475 32.6247 53.4404 32.6247 53.2245C32.6247 53.0085 32.5389 52.8014 32.3862 52.6487C32.2335 52.4959 32.0264 52.4102 31.8104 52.4102C31.5944 52.4102 31.3873 52.4959 31.2346 52.6487C31.0819 52.8014 30.9961 53.0085 30.9961 53.2245C30.9961 53.4404 31.0819 53.6475 31.2346 53.8003C31.3873 53.953 31.5944 54.0388 31.8104 54.0388Z" stroke="#FF6B88" stroke-width="0.769171"/>
</svg>
